<svg fill="#212529" xmlns="http://www.w3.org/2000/svg"  viewBox="0 0 100 100" width="100px" height="100px"><path d="M 35 15 C 27.27961 15 21 21.27961 21 29 L 21 64.158203 L 16.974609 60.279297 A 1.0001 1.0001 0 0 0 15.572266 60.292969 L 11.332031 64.533203 A 1.0001 1.0001 0 0 0 11.337891 65.953125 L 24.298828 78.712891 A 1.0001 1.0001 0 0 0 25.701172 78.712891 L 38.662109 65.953125 A 1.0001 1.0001 0 0 0 38.667969 64.533203 L 34.427734 60.292969 A 1.0001 1.0001 0 0 0 33.025391 60.279297 L 29 64.158203 L 29 29 C 29 25.674438 31.674438 23 35 23 L 54 23 A 1.0001 1.0001 0 0 0 55 22 L 55 16 A 1.0001 1.0001 0 0 0 54 15 L 35 15 z M 35 17 L 53 17 L 53 21 L 35 21 C 30.593562 21 27 24.593562 27 29 L 27 66.509766 A 1.0001 1.0001 0 0 0 28.693359 67.230469 L 33.707031 62.400391 L 36.539062 65.234375 L 25 76.595703 L 13.460938 65.234375 L 16.292969 62.400391 L 21.306641 67.230469 A 1.0001 1.0001 0 0 0 23 66.509766 L 23 29 C 23 22.36039 28.36039 17 35 17 z M 74.976562 21 A 1.0001 1.0001 0 0 0 74.298828 21.287109 L 61.337891 34.046875 A 1.0001 1.0001 0 0 0 61.332031 35.466797 L 65.572266 39.707031 A 1.0001 1.0001 0 0 0 66.974609 39.720703 L 71 35.841797 L 71 71 C 71 74.325562 68.325562 77 65 77 L 46 77 A 1.0001 1.0001 0 0 0 45 78 L 45 84 A 1.0001 1.0001 0 0 0 46 85 L 65 85 C 72.72039 85 79 78.72039 79 71 L 79 35.841797 L 83.025391 39.720703 A 1.0001 1.0001 0 0 0 84.427734 39.707031 L 88.667969 35.466797 A 1.0001 1.0001 0 0 0 88.662109 34.046875 L 75.701172 21.287109 A 1.0001 1.0001 0 0 0 74.976562 21 z M 75 23.402344 L 86.539062 34.765625 L 83.707031 37.599609 L 78.693359 32.769531 A 1.0001 1.0001 0 0 0 77 33.490234 L 77 71 C 77 77.63961 71.63961 83 65 83 L 47 83 L 47 79 L 65 79 C 69.406438 79 73 75.406438 73 71 L 73 33.490234 A 1.0001 1.0001 0 0 0 71.306641 32.769531 L 66.292969 37.599609 L 63.460938 34.765625 L 75 23.402344 z M 24.492188 28.992188 A 0.50005 0.50005 0 0 0 24 29.5 L 24 40.5 A 0.50005 0.50005 0 1 0 25 40.5 L 25 29.5 A 0.50005 0.50005 0 0 0 24.492188 28.992188 z M 24.492188 41.992188 A 0.50005 0.50005 0 0 0 24 42.5 L 24 44.5 A 0.50005 0.50005 0 1 0 25 44.5 L 25 42.5 A 0.50005 0.50005 0 0 0 24.492188 41.992188 z M 75.492188 42.992188 A 0.50005 0.50005 0 0 0 75 43.5 L 75 60.5 A 0.50005 0.50005 0 1 0 76 60.5 L 76 43.5 A 0.50005 0.50005 0 0 0 75.492188 42.992188 z M 24.492188 46.992188 A 0.50005 0.50005 0 0 0 24 47.5 L 24 54.5 A 0.50005 0.50005 0 1 0 25 54.5 L 25 47.5 A 0.50005 0.50005 0 0 0 24.492188 46.992188 z M 75.492188 62.992188 A 0.50005 0.50005 0 0 0 75 63.5 L 75 65.5 A 0.50005 0.50005 0 1 0 76 65.5 L 76 63.5 A 0.50005 0.50005 0 0 0 75.492188 62.992188 z M 75.492188 66.992188 A 0.50005 0.50005 0 0 0 75 67.5 L 75 68.5 A 0.50005 0.50005 0 1 0 76 68.5 L 76 67.5 A 0.50005 0.50005 0 0 0 75.492188 66.992188 z"/></svg>